<svg xmlns="http://www.w3.org/2000/svg" viewBox="0 0 590 234" width="590" height="234" role="img" aria-label="one registry pass, many adapters, one winner"><style>text{font-family:ui-sans-serif,system-ui,'Segoe UI',sans-serif;fill:#1a1712}.h{font-size:13px;font-weight:700;letter-spacing:.02em}.n{font-size:11px;font-weight:700;fill:#8a8270;letter-spacing:.08em}.l{font-size:12.5px;font-weight:650}.s{font-size:11px;fill:#8a8270}.c{font-size:11px;fill:#8a8270}.th{font-size:11px;font-weight:700;fill:#8a8270;letter-spacing:.04em}</style><rect x="1" y="1" width="588" height="232" rx="10" fill="#faf8f3" stroke="#e6e0d4"/><line x1="20" y1="42" x2="570" y2="42" stroke="#e6e0d4"/><text x="20" y="30" class="n">FIG 01</text><text x="72" y="30" class="h">one registry pass, many adapters, one winner</text><text x="20" y="76" class="l">every adapter</text><rect x="270" y="64" width="300" height="22" rx="4" fill="#ffffff" stroke="#e6e0d4"/><rect x="270" y="64" width="300.0" height="22" rx="4" fill="#4E8C9E"/><text x="578" y="79" class="s">20</text><text x="20" y="116" class="l">returned above 0</text><rect x="270" y="104" width="300" height="22" rx="4" fill="#ffffff" stroke="#e6e0d4"/><rect x="270" y="104" width="45.0" height="22" rx="4" fill="#5C9472"/><text x="323" y="119" class="s">3</text><text x="20" y="156" class="l">cleared 0.5</text><rect x="270" y="144" width="300" height="22" rx="4" fill="#ffffff" stroke="#e6e0d4"/><rect x="270" y="144" width="30.0" height="22" rx="4" fill="#CC9A47"/><text x="308" y="159" class="s">2</text><text x="20" y="196" class="l">single highest</text><rect x="270" y="184" width="300" height="22" rx="4" fill="#ffffff" stroke="#e6e0d4"/><rect x="270" y="184" width="15.0" height="22" rx="4" fill="#8A6BA8"/><text x="293" y="199" class="s">1</text></svg>
